HIERARCHY
ROOT Hips
{
	OFFSET 0.00000 0.00000 0.00000
	CHANNELS 6 Xposition Yposition Zposition Zrotation Yrotation Xrotation 
	JOINT LHipJoint
	{
		OFFSET 0 0 0
		CHANNELS 3 Zrotation Yrotation Xrotation
		JOINT LeftUpLeg
		{
			OFFSET 1.41496 -1.84582 0.78394
			CHANNELS 3 Zrotation Yrotation Xrotation
			JOINT LeftLeg
			{
				OFFSET 2.58040 -7.08960 0.00000
				CHANNELS 3 Zrotation Yrotation Xrotation
				JOINT LeftFoot
				{
					OFFSET 2.64719 -7.27309 0.00000
					CHANNELS 3 Zrotation Yrotation Xrotation
					JOINT LeftToeBase
					{
						OFFSET 0.20718 -0.56921 2.20259
						CHANNELS 3 Zrotation Yrotation Xrotation
						End Site
						{
							OFFSET 0.00000 -0.00000 1.14243
						}
					}
				}
			}
		}
	}
	JOINT RHipJoint
	{
		OFFSET 0 0 0
		CHANNELS 3 Zrotation Yrotation Xrotation
		JOINT RightUpLeg
		{
			OFFSET -1.40551 -1.84582 0.78394
			CHANNELS 3 Zrotation Yrotation Xrotation
			JOINT RightLeg
			{
				OFFSET -2.56572 -7.04926 0.00000
				CHANNELS 3 Zrotation Yrotation Xrotation
				JOINT RightFoot
				{
					OFFSET -2.57974 -7.08778 0.00000
					CHANNELS 3 Zrotation Yrotation Xrotation
					JOINT RightToeBase
					{
						OFFSET -0.26704 -0.73369 2.20815
						CHANNELS 3 Zrotation Yrotation Xrotation
						End Site
						{
							OFFSET -0.00000 -0.00000 1.16246
						}
					}
				}
			}
		}
	}
	JOINT LowerBack
	{
		OFFSET 0 0 0
		CHANNELS 3 Zrotation Yrotation Xrotation
		JOINT Spine
		{
			OFFSET -0.04690 2.05196 -0.07017
			CHANNELS 3 Zrotation Yrotation Xrotation
			JOINT Spine1
			{
				OFFSET 0.04085 2.05260 0.00800
				CHANNELS 3 Zrotation Yrotation Xrotation
				JOINT Neck
				{
					OFFSET 0 0 0
					CHANNELS 3 Zrotation Yrotation Xrotation
					JOINT Neck1
					{
						OFFSET -0.03582 1.80995 0.19301
						CHANNELS 3 Zrotation Yrotation Xrotation
						JOINT Head
						{
							OFFSET 0.00952 1.80195 -0.36389
							CHANNELS 3 Zrotation Yrotation Xrotation
							End Site
							{
								OFFSET 0.00392 1.85062 -0.14494
							}
						}
					}
				}
				JOINT LeftShoulder
				{
					OFFSET 0 0 0
					CHANNELS 3 Zrotation Yrotation Xrotation
					JOINT LeftArm
					{
						OFFSET 3.55224 1.39726 -0.13667
						CHANNELS 3 Zrotation Yrotation Xrotation
						JOINT LeftForeArm
						{
							OFFSET 5.14507 -0.00000 -0.00000
							CHANNELS 3 Zrotation Yrotation Xrotation
							JOINT LeftHand
							{
								OFFSET 3.50646 -0.00000 0.00000
								CHANNELS 3 Zrotation Yrotation Xrotation
								JOINT LeftFingerBase
								{
									OFFSET 0 0 0
									CHANNELS 3 Zrotation Yrotation Xrotation
									JOINT LeftHandIndex1
									{
										OFFSET 0.62997 -0.00000 0.00000
										CHANNELS 3 Zrotation Yrotation Xrotation
										End Site
										{
											OFFSET 0.50790 -0.00000 0.00000
										}
									}
								}
								JOINT LThumb
								{
									OFFSET 0 0 0
									CHANNELS 3 Zrotation Yrotation Xrotation
									End Site
									{
										OFFSET 0.51565 -0.00000 0.51565
									}
								}
							}
						}
					}
				}
				JOINT RightShoulder
				{
					OFFSET 0 0 0
					CHANNELS 3 Zrotation Yrotation Xrotation
					JOINT RightArm
					{
						OFFSET -3.06467 1.61290 -0.28813
						CHANNELS 3 Zrotation Yrotation Xrotation
						JOINT RightForeArm
						{
							OFFSET -5.23200 -0.00000 -0.00000
							CHANNELS 3 Zrotation Yrotation Xrotation
							JOINT RightHand
							{
								OFFSET -3.65641 -0.00000 0.00000
								CHANNELS 3 Zrotation Yrotation Xrotation
								JOINT RightFingerBase
								{
									OFFSET 0 0 0
									CHANNELS 3 Zrotation Yrotation Xrotation
									JOINT RightHandIndex1
									{
										OFFSET -0.65681 -0.00000 0.00000
										CHANNELS 3 Zrotation Yrotation Xrotation
										End Site
										{
											OFFSET -0.52953 -0.00000 0.00000
										}
									}
								}
								JOINT RThumb
								{
									OFFSET 0 0 0
									CHANNELS 3 Zrotation Yrotation Xrotation
									End Site
									{
										OFFSET -0.53762 -0.00000 0.53762
									}
								}
							}
						}
					}
				}
			}
		}
	}
}
MOTION
Frames: 15
Frame Time: .0083333
0.4401 16.6849 -43.6804 0 0 0 0 0 0 -21 0 0 0 0 0 0 0 0 0 0 0 0 0 0 21 0 0 0 0 0 0 0 0 0 0 0 0 0 0 0 0 0 0 0 0 0 0 -16 0 0 21 0 0 11 0 0 0 -8 0 0 0 0 0 0 0 0 0 0 0 0 0 0 0 0 0 0 0 0 8 0 0 0 0 0 0 0 0 0 0 0 0 0 0 0 0 0
0.4401 16.6849 -43.6804 -5.1776 -0.1183 27.2584 0.0000 0.0000 0.0000 -3.4284 -14.8331 -78.1227 10.9009 17.8862 62.4593 -0.5626 -17.7120 -6.2049 1.2012 -6.9537 -19.5784 0.0000 0.0000 0.0000 25.6496 1.9036 6.2225 -3.0870 -10.8346 31.7242 -1.8601 -17.4945 25.6855 -1.2917 7.2012 -20.3129 5.3877 2.1826 16.6484 1.9759 4.0595 0.7156 -1.8639 1.7745 -8.3456 -2.2828 -3.1559 -15.4763 0.6852 -3.8252 -4.5553 0.3892 -1.8745 1.2120 -0.0000 0.0000 0.0000 -83.9082 53.4588 38.2234 123.1525 -55.4096 -88.2684 -0.0000 0.0000 -17.5301 28.0113 -12.0548 -6.3395 -7.1250 0.0000 -0.0000 0.5526 16.3819 -0.3743 -0.0000 0.0000 0.0000 77.3169 2.5714 47.2716 -138.1991 49.1014 -100.2101 0.0000 -0.0000 -8.4096 -20.8318 10.7562 -4.0619 7.1250 -0.0000 -0.0000 4.4007 -18.5100 2.7842
0.4012 16.6637 -43.1873 -5.1220 0.1029 26.9041 0.0000 0.0000 0.0000 -3.9163 -14.9024 -76.4356 10.9884 17.9294 62.7440 -0.6138 -17.9313 -5.7766 1.2544 -7.1004 -20.0130 0.0000 0.0000 0.0000 25.8589 1.7099 4.3794 -4.0547 -12.2328 36.5607 -1.6131 -17.9441 24.3471 -0.9976 6.3562 -17.8216 4.9495 2.1904 16.6637 2.0483 3.9845 0.9025 -1.5204 1.7642 -8.1898 -2.4249 -3.2470 -15.3238 0.9337 -3.9294 -4.8402 0.4902 -1.9178 1.1025 -0.0000 -0.0000 0.0000 -85.2523 51.1927 37.4008 121.9785 -55.7593 -87.2999 -0.0000 0.0000 -18.1267 28.0069 -11.4826 -6.0439 -7.1250 0.0000 -0.0000 0.5954 17.0230 -0.3951 -0.0000 -0.0000 0.0000 78.6209 0.8774 46.3338 -134.5339 50.9948 -97.3996 0.0000 -0.0000 -8.3327 -21.4280 10.3493 -4.0329 7.1250 -0.0000 -0.0000 3.9690 -18.8953 2.4757
0.3607 16.6307 -42.6981 -4.9719 0.4495 26.5719 0.0000 0.0000 0.0000 -4.4149 -15.1314 -74.6755 11.1623 18.0136 63.3075 -0.6885 -18.4063 -5.3643 0.6999 -5.3476 -14.9026 0.0000 0.0000 0.0000 25.9765 1.3240 2.3052 -5.1352 -13.5345 41.4037 -1.4572 -17.9959 23.4126 -0.7271 5.4483 -15.1917 4.5188 2.1693 16.8034 2.0845 3.8824 1.0138 -1.2215 1.7335 -8.1829 -2.5343 -3.3375 -15.4504 1.1614 -4.0288 -4.8706 0.5736 -1.9600 1.1242 -0.0000 0.0000 0.0000 -86.1999 48.7615 36.9769 120.4049 -56.2011 -85.9956 -0.0000 0.0000 -18.6438 28.1199 -10.9838 -5.8138 -7.1250 0.0000 -0.0000 0.7131 17.5696 -0.4646 -0.0000 0.0000 0.0000 79.9819 -1.0172 45.0976 -130.5787 52.7594 -94.2872 0.0000 -0.0000 -8.5826 -22.3511 9.6971 -3.9618 7.1250 -0.0000 -0.0000 3.2954 -19.5209 2.0081
0.3234 16.5635 -42.2128 -4.5388 0.6559 26.0824 0.0000 0.0000 0.0000 -5.4354 -15.3825 -72.5846 11.3771 18.1147 64.0001 -0.7138 -19.4644 -6.4386 0.1867 -2.7826 -7.6741 0.0000 0.0000 0.0000 25.7053 0.5691 0.8538 -6.2494 -14.6658 45.9748 -1.3109 -17.5630 22.3498 -0.5865 4.9033 -13.6329 3.9488 2.1687 17.0670 1.9354 3.7679 1.1774 -1.0439 1.6978 -8.1821 -2.5194 -3.4462 -15.5771 1.3970 -4.1724 -5.0130 0.6368 -2.0255 1.1072 0.0000 0.0000 0.0000 -86.6811 46.1368 36.8862 118.4461 -56.7100 -84.3630 -0.0000 0.0000 -19.0166 28.2118 -10.7048 -5.6905 -7.1250 0.0000 -0.0000 0.7988 17.8727 -0.5151 0.0000 0.0000 0.0000 81.5440 -2.7474 43.5898 -125.8908 54.5241 -90.5108 0.0000 -0.0000 -9.2853 -23.1446 8.9990 -3.8252 7.1250 -0.0000 -0.0000 2.7076 -20.2130 1.6071
0.2868 16.5843 -41.7061 -3.5953 0.7789 25.8530 0.0000 0.0000 0.0000 -7.2898 -15.7008 -69.9910 11.6032 18.2178 64.7254 -0.3367 -18.7173 -9.9381 0.0992 -2.0311 -5.5915 0.0000 0.0000 0.0000 24.7343 0.2379 -2.3000 -7.4775 -15.7212 50.6582 -1.1467 -15.7267 20.6582 -0.9217 6.1165 -17.1229 2.9503 2.1043 17.2461 1.6279 3.4760 1.1538 -0.7529 1.5850 -8.3575 -2.4380 -3.4485 -15.4375 1.5782 -4.1922 -5.2036 0.6826 -2.0322 1.0239 -0.0000 -0.0000 0.0000 -87.0196 43.2176 36.9078 115.3970 -57.4167 -81.8037 -0.0000 0.0000 -18.8006 28.2112 -10.7946 -5.7373 -7.1250 0.0000 -0.0000 0.7915 17.7718 -0.5122 -0.0000 -0.0000 0.0000 83.2259 -4.2617 41.9565 -119.4501 56.4547 -85.2010 0.0000 -0.0000 -10.8218 -23.9854 8.8377 -3.9104 7.1250 -0.0000 -0.0000 2.0985 -20.3250 1.2398
0.2512 16.5459 -41.2185 -2.7970 0.9127 25.5360 0.0000 0.0000 0.0000 -8.7947 -16.0084 -67.7144 11.8025 18.3059 65.3615 -0.0950 -18.4401 -12.0955 0.0199 -0.9106 -2.5029 0.0000 0.0000 0.0000 23.9247 -0.2502 -4.6675 -8.7719 -16.6586 55.2978 -0.9554 -14.7290 18.9557 -0.9733 6.2807 -17.6011 2.0296 2.0605 17.4614 1.3979 3.2263 1.2061 -0.4292 1.4938 -8.4637 -2.4288 -3.4757 -15.3727 1.7763 -4.2305 -5.3777 0.7438 -2.0468 0.9617 0.0000 -0.0000 0.0000 -87.4805 40.4685 36.8778 112.7686 -57.9476 -79.5823 -0.0000 0.0000 -18.8673 28.2806 -10.6423 -5.6741 -7.1250 0.0000 -0.0000 0.8518 17.9356 -0.5481 0.0000 -0.0000 0.0000 84.7849 -5.7570 40.1805 -113.1637 57.8722 -79.9170 0.0000 -0.0000 -11.8173 -24.6398 8.4463 -3.8543 7.1250 -0.0000 -0.0000 1.6133 -20.7031 0.9391
0.2175 16.5066 -40.7336 -1.7923 0.9905 25.2630 0.0000 0.0000 0.0000 -10.5401 -16.3811 -65.2939 11.9562 18.3721 65.8498 0.2279 -17.8694 -14.5851 0.0000 -0.0308 -0.0845 0.0000 0.0000 0.0000 22.8009 -0.7517 -7.2516 -10.1461 -17.4912 59.9755 -0.7558 -13.5024 16.9740 -1.0729 6.5844 -18.4899 0.9303 2.0026 17.6851 1.1067 2.9138 1.2263 -0.0534 1.3784 -8.6096 -2.4107 -3.4724 -15.2934 1.9572 -4.2296 -5.5373 0.8003 -2.0427 0.9006 -0.0000 -0.0000 0.0000 -87.8925 37.6431 36.9069 109.8355 -58.4599 -77.0892 -0.0000 0.0000 -18.8058 28.3710 -10.5321 -5.6376 -7.1250 0.0000 -0.0000 0.9237 18.0496 -0.5921 -0.0000 -0.0000 0.0000 86.3133 -7.1472 38.2749 -106.1317 58.9935 -73.9232 0.0000 -0.0000 -12.8509 -25.3298 8.1541 -3.8408 7.1250 -0.0000 -0.0000 1.1037 -20.9726 0.6357
0.1865 16.4669 -40.2518 -0.6260 0.9966 25.0398 0.0000 0.0000 0.0000 -12.4497 -16.8091 -62.7537 12.0519 18.4125 66.1531 0.6123 -17.0558 -17.2589 0.0054 0.4725 1.2983 0.0000 0.0000 0.0000 21.3920 -1.2494 -10.0208 -11.5593 -18.1981 64.5851 -0.5599 -12.1362 14.7717 -1.2087 6.9745 -19.6399 -0.3189 1.9366 17.9089 0.7691 2.5507 1.2141 0.3726 1.2450 -8.7868 -2.3932 -3.4417 -15.2042 2.1228 -4.1920 -5.6710 0.8540 -2.0208 0.8454 0.0000 -0.0000 0.0000 -88.2811 34.7647 36.9827 106.6806 -58.9221 -74.3935 -0.0000 0.0000 -18.6252 28.4890 -10.4497 -5.6216 -7.1250 0.0000 -0.0000 1.0128 18.1299 -0.6475 0.0000 -0.0000 0.0000 87.7525 -8.4465 36.2810 -98.4842 59.7263 -67.3408 0.0000 -0.0000 -13.7899 -26.0915 8.0127 -3.9051 7.1250 -0.0000 -0.0000 0.5468 -21.0718 0.3137
0.1591 16.4279 -39.7731 0.6059 0.9261 24.8768 0.0000 0.0000 0.0000 -14.3812 -17.2810 -60.1491 12.0958 18.4308 66.2920 1.0276 -16.1027 -19.9453 0.0100 0.6459 1.7749 0.0000 0.0000 0.0000 19.7854 -1.6980 -13.0046 -13.0017 -18.7828 69.1307 -0.3842 -10.6804 12.4546 -1.3465 7.3463 -20.7454 -1.6411 1.8689 18.1121 0.4143 2.1616 1.1702 0.8313 1.1044 -8.9775 -2.3842 -3.3870 -15.1295 2.2741 -4.1211 -5.7572 0.9059 -1.9826 0.8074 -0.0000 0.0000 0.0000 -88.6625 31.8510 37.1057 103.4371 -59.3066 -71.6098 -0.0000 0.0000 -18.3532 28.6427 -10.3977 -5.6298 -7.1250 0.0000 -0.0000 1.1249 18.1719 -0.7181 -0.0000 0.0000 0.0000 89.0360 -9.6885 34.2517 -90.5290 59.9989 -60.4581 0.0000 -0.0000 -14.5080 -26.9684 8.0161 -4.0587 7.1250 -0.0000 -0.0000 -0.0869 -21.0007 -0.0500
0.1362 16.3886 -39.2988 1.8031 0.7859 24.7741 0.0000 0.0000 0.0000 -16.2036 -17.7858 -57.5351 12.0930 18.4297 66.2832 1.4455 -15.1519 -22.5204 0.0081 0.5809 1.5963 0.0000 0.0000 0.0000 18.0925 -2.0815 -16.1655 -14.4441 -19.2432 73.5563 -0.2376 -9.1802 10.0948 -1.4747 7.6734 -21.7262 -2.9362 1.8060 18.2935 0.0651 1.7769 1.0916 1.2819 0.9684 -9.1820 -2.3819 -3.3206 -15.0940 2.4162 -4.0333 -5.7770 0.9560 -1.9357 0.7973 0.0000 -0.0000 0.0000 -89.0206 28.9475 37.3020 100.3341 -59.5926 -68.9373 -0.0000 0.0000 -18.0141 28.8058 -10.3929 -5.6651 -7.1250 0.0000 -0.0000 1.2398 18.1596 -0.7919 0.0000 -0.0000 0.0000 90.1212 -10.9187 32.2345 -82.6551 59.7952 -53.6435 0.0000 -0.0000 -14.9463 -27.9680 8.1365 -4.2978 7.1250 -0.0000 -0.0000 -0.8015 -20.7850 -0.4649
0.1178 16.3492 -38.8286 2.8643 0.5892 24.7394 0.0000 0.0000 0.0000 -17.8015 -18.2962 -54.9660 12.0543 18.4135 66.1608 1.8467 -14.3172 -24.9049 0.0040 0.4090 1.1238 0.0000 0.0000 0.0000 16.4416 -2.3628 -19.5204 -15.8574 -19.5835 77.8067 -0.1265 -7.6866 7.7914 -1.5943 7.9642 -22.6053 -4.1090 1.7502 18.4311 -0.2539 1.4231 0.9770 1.6896 0.8463 -9.3902 -2.3877 -3.2510 -15.1070 2.5624 -3.9398 -5.7237 1.0082 -1.8854 0.8193 -0.0000 0.0000 0.0000 -89.3618 26.0985 37.5800 97.6529 -59.7775 -66.6227 -0.0000 0.0000 -17.6142 28.9296 -10.4503 -5.7248 -7.1250 0.0000 -0.0000 1.3222 18.0814 -0.8467 -0.0000 0.0000 0.0000 90.9726 -12.1918 30.2933 -75.3076 59.1684 -47.3115 0.0000 -0.0000 -15.1559 -29.0324 8.3338 -4.5994 7.1250 -0.0000 -0.0000 -1.5540 -20.4705 -0.9127
0.1035 16.3091 -38.3634 3.7037 0.3233 24.7730 0.0000 0.0000 0.0000 -19.1073 -18.7555 -52.4912 11.9916 18.3871 65.9621 2.2273 -13.5851 -27.0868 0.0002 0.0992 0.2727 0.0000 0.0000 0.0000 14.9372 -2.4860 -23.0698 -17.2139 -19.8129 81.8295 -0.0508 -6.2553 5.6273 -1.6998 8.2107 -23.3558 -5.0930 1.7122 18.5075 -0.5269 1.1329 0.8299 2.0242 0.7510 -9.5930 -2.3970 -3.1861 -15.1753 2.7233 -3.8521 -5.6012 1.0645 -1.8372 0.8739 -0.0000 0.0000 0.0000 -89.6867 23.3674 37.9443 95.7350 -59.8754 -64.9646 -0.0000 0.0000 -17.1700 28.9609 -10.5821 -5.8031 -7.1250 0.0000 -0.0000 1.3335 17.9288 -0.8585 -0.0000 0.0000 0.0000 91.5778 -13.5495 28.4969 -68.8255 58.2362 -41.7709 0.0000 -0.0000 -15.1975 -30.1256 8.5907 -4.9540 7.1250 -0.0000 -0.0000 -2.3177 -20.0763 -1.3824
0.0926 16.2688 -37.9009 4.3104 0.0217 24.8508 0.0000 0.0000 0.0000 -20.1384 -19.1383 -50.0884 11.9106 18.3526 65.7052 2.5690 -13.0995 -28.9927 0.0003 -0.1169 -0.3213 0.0000 0.0000 0.0000 13.6323 -2.4797 -26.7669 -18.4825 -19.9447 85.5592 -0.0050 -4.9117 3.6075 -1.7960 8.4277 -24.0207 -5.8620 1.6818 18.5336 -0.7501 0.9011 0.6576 2.2757 0.6779 -9.7921 -2.4095 -3.1304 -15.2936 2.9131 -3.7767 -5.4196 1.1296 -1.7937 0.9576 -0.0000 -0.0000 0.0000 -90.0065 20.8213 38.3891 94.8829 -59.9097 -64.2274 -0.0000 0.0000 -16.6959 28.8601 -10.7960 -5.8939 -7.1250 0.0000 -0.0000 1.2456 17.6983 -0.8081 -0.0000 -0.0000 0.0000 91.9480 -15.0416 26.9136 -63.4519 57.1617 -37.2277 0.0000 -0.0000 -15.2232 -31.1492 8.8562 -5.3161 7.1250 -0.0000 -0.0000 -3.0246 -19.6689 -1.8326
0.0839 16.2297 -37.4402 4.6925 -0.3110 24.9622 0.0000 0.0000 0.0000 -20.9452 -19.3905 -47.7623 11.8098 18.3091 65.3848 2.8774 -12.7699 -30.6599 0.0021 -0.2953 -0.8113 0.0000 0.0000 0.0000 12.5450 -2.3363 -30.5808 -19.6374 -19.9968 88.9398 0.0170 -3.6975 1.7221 -1.8827 8.6173 -24.6053 -6.4251 1.6566 18.5098 -0.9266 0.7248 0.4711 2.4468 0.6247 -9.9787 -2.4203 -3.0821 -15.4704 3.1313 -3.7119 -5.1909 1.2026 -1.7540 1.0680 0.0000 -0.0000 0.0000 -90.3333 18.5074 38.9061 95.3537 -59.8914 -64.6347 -0.0000 0.0000 -16.2407 28.6095 -11.0569 -5.9717 -7.1250 0.0000 -0.0000 1.0493 17.4323 -0.6869 0.0000 -0.0000 0.0000 92.1104 -16.6838 25.6029 -59.2962 56.1194 -33.7561 0.0000 -0.0000 -15.3595 -32.0347 9.1091 -5.6573 7.1250 -0.0000 -0.0000 -3.6289 -19.2811 -2.2316
